# xmcd
#
# Track frame offsets:
#	150
#	20310
#	32757
#	44001
#	74883
#	84904
#	102448
#	114751
#	144125
#	156267
#	182075
#	198615
#	230497
#	245281
#
# Disc length: 3490 seconds
#
# Revision: 5
# Processed by: cddbd v1.5.1PL0 Copyright (c) Steve Scherf et al.
# Submitted via: EasyCDDAExtractor 6.2.0.3
#
DISCID=ba0da00e
DTITLE=Sir Olivers Blues Distillery - rough`n touch
DYEAR=1900
DGENRE=Blues
TTITLE0=Angel of Mercy
TTITLE1=You are dynamite
TTITLE2=You are my lollipop
TTITLE3=dirty dishes
TTITLE4=rough`n touch
TTITLE5=I'm your doctor
TTITLE6=Sliding into trouble
TTITLE7=I'm evil
TTITLE8=The seventh son
TTITLE9=Your ghost
TTITLE10=Watchagonnado
TTITLE11=Shotgun blues
TTITLE12=You're dynamite part II
TTITLE13=Bald headed Woman
EXTD=
EXTT0=
EXTT1=
EXTT2=
EXTT3=
EXTT4=
EXTT5=
EXTT6=
EXTT7=
EXTT8=
EXTT9=
EXTT10=
EXTT11=
EXTT12=
EXTT13=
PLAYORDER=
